<svg id="svg" version="1.1" xmlns="http://www.w3.org/2000/svg" xmlns:xlink="http://www.w3.org/1999/xlink" width="400" height="127.34375" viewBox="0, 0, 400,127.34375"><g id="svgg"><path id="path0" d="M145.333 50.685 C 121.875 53.342,111.582 81.501,127.832 98.564 C 144.227 115.777,173.532 106.063,176.507 82.429 C 178.776 64.399,163.309 48.649,145.333 50.685 M246.333 50.686 C 222.461 53.406,212.328 82.695,229.529 99.256 C 245.387 114.524,271.561 107.039,276.901 85.708 C 281.648 66.743,265.706 48.478,246.333 50.686 M348.667 50.686 C 325.354 53.342,314.936 81.468,330.998 98.386 C 346.745 114.974,374.394 107.297,379.407 84.944 C 383.603 66.233,367.706 48.516,348.667 50.686 M44.500 50.778 C 32.917 52.599,24.472 59.436,20.929 69.860 C 12.505 94.645,39.640 116.728,62.202 103.449 C 81.192 92.273,80.634 64.463,61.209 53.961 C 56.482 51.406,49.258 50.030,44.500 50.778 " stroke="none" fill="#fbfbfb" fill-rule="evenodd"></path><path id="path1" d="M184.479 0.147 C 182.088 0.649,179.431 2.933,178.173 5.571 C 177.372 7.249,177.333 8.127,177.333 24.704 C 177.333 33.117,177.296 40.000,177.251 40.000 C 177.205 40.000,176.630 39.616,175.973 39.147 C 165.913 31.969,151.500 28.902,139.333 31.351 C 131.827 32.861,126.241 35.287,119.566 39.937 C 116.884 41.805,111.551 47.035,110.070 49.250 C 109.825 49.617,109.572 49.954,109.509 50.000 C 108.346 50.839,103.652 59.514,102.745 62.500 C 102.592 63.004,102.291 63.979,102.075 64.667 C 99.297 73.535,99.236 84.059,101.913 92.667 C 102.241 93.721,102.598 94.883,102.707 95.250 C 103.220 96.980,105.646 102.085,106.739 103.734 C 107.158 104.367,107.616 105.114,107.756 105.395 C 109.099 108.088,115.635 115.110,119.069 117.549 C 119.483 117.843,120.262 118.396,120.799 118.778 C 121.336 119.161,122.033 119.620,122.346 119.798 C 122.660 119.977,123.603 120.545,124.442 121.061 C 125.282 121.578,126.020 122.000,126.084 122.000 C 126.147 122.000,126.811 122.292,127.558 122.648 C 130.531 124.067,131.427 124.407,134.851 125.412 C 143.309 127.895,152.970 127.976,161.000 125.631 C 161.962 125.350,163.125 125.018,163.583 124.892 C 164.833 124.550,166.580 123.862,168.176 123.084 C 168.960 122.702,169.831 122.309,170.112 122.211 C 170.394 122.113,171.327 121.602,172.187 121.077 C 173.047 120.551,174.012 119.972,174.333 119.790 C 177.532 117.975,181.860 114.164,185.684 109.794 C 186.526 108.832,189.635 104.459,189.787 104.023 C 189.839 103.873,190.251 103.140,190.702 102.394 C 192.039 100.183,194.412 94.465,194.912 92.250 C 195.036 91.700,195.366 90.237,195.645 89.000 C 196.798 83.896,196.724 86.717,196.787 45.607 C 196.849 4.675,196.919 7.582,195.823 5.417 C 194.728 3.254,192.753 1.355,190.723 0.513 C 189.684 0.081,185.860 -0.142,184.479 0.147 M245.417 30.614 C 242.140 30.901,236.255 32.158,233.333 33.195 C 230.866 34.070,226.546 36.056,225.411 36.837 C 224.999 37.120,224.420 37.455,224.123 37.582 C 220.617 39.074,212.902 46.327,209.675 51.167 C 209.277 51.762,208.819 52.400,208.656 52.583 C 208.492 52.767,208.094 53.404,207.771 54.000 C 205.815 57.605,205.167 58.851,205.167 59.010 C 205.167 59.108,204.969 59.614,204.728 60.136 C 204.104 61.483,202.853 65.060,202.591 66.246 C 202.468 66.798,202.179 68.112,201.947 69.167 C 200.666 74.986,200.591 82.350,201.758 87.833 C 203.406 95.579,205.222 100.004,209.204 105.975 C 212.654 111.148,219.137 117.528,223.111 119.660 C 223.374 119.801,224.163 120.275,224.865 120.712 C 227.103 122.107,231.899 124.272,234.167 124.909 C 234.579 125.025,235.704 125.350,236.667 125.631 C 244.938 128.046,255.786 127.862,263.568 125.173 C 264.109 124.986,264.654 124.833,264.779 124.833 C 265.111 124.833,268.141 123.610,269.724 122.836 C 270.478 122.468,271.151 122.167,271.219 122.167 C 271.287 122.167,272.133 121.698,273.100 121.125 C 274.067 120.552,275.176 119.896,275.565 119.667 C 279.114 117.576,284.784 112.335,287.636 108.508 C 288.152 107.816,288.617 107.212,288.671 107.167 C 288.805 107.051,289.725 105.693,290.103 105.052 C 290.276 104.760,290.800 103.898,291.269 103.136 C 294.451 97.960,297.239 89.170,297.518 83.439 C 297.806 77.492,297.545 72.671,296.731 68.917 C 295.313 62.380,291.420 53.716,288.302 50.161 C 288.024 49.843,287.567 49.252,287.287 48.847 C 286.634 47.901,285.526 46.685,283.328 44.500 C 280.628 41.816,279.621 40.983,276.315 38.694 C 274.858 37.685,271.024 35.549,269.567 34.935 C 268.842 34.629,267.875 34.208,267.416 33.999 C 264.561 32.697,258.645 31.228,254.333 30.752 C 252.318 30.529,247.278 30.451,245.417 30.614 M347.750 30.614 C 343.102 31.021,336.654 32.617,332.917 34.285 C 329.830 35.663,329.051 36.047,327.746 36.836 C 326.989 37.293,326.320 37.667,326.258 37.667 C 326.092 37.667,322.930 39.909,321.606 40.965 C 317.280 44.417,312.326 50.020,310.219 53.845 C 309.944 54.343,309.336 55.425,308.867 56.250 C 308.397 57.075,307.816 58.275,307.576 58.917 C 307.335 59.558,307.081 60.158,307.012 60.250 C 306.782 60.552,305.540 63.897,305.278 64.917 C 302.739 74.809,302.564 81.280,304.595 90.137 C 306.105 96.725,309.577 103.963,313.538 108.783 C 313.930 109.259,314.676 110.168,315.198 110.802 C 316.309 112.155,320.016 115.699,321.333 116.670 C 321.837 117.041,322.400 117.477,322.583 117.638 C 328.954 123.232,341.157 127.283,351.667 127.293 C 357.505 127.299,359.734 126.944,367.083 124.841 C 368.326 124.486,370.144 123.754,372.019 122.855 C 372.808 122.476,373.504 122.167,373.565 122.167 C 373.655 122.167,375.899 120.873,377.411 119.950 C 381.177 117.650,385.302 114.065,388.604 110.222 C 390.004 108.592,392.168 105.698,392.351 105.211 C 392.412 105.049,392.810 104.392,393.237 103.750 C 394.011 102.584,394.421 101.796,395.972 98.489 C 396.848 96.623,397.107 95.899,398.166 92.369 C 400.784 83.635,400.696 73.454,397.927 64.667 C 397.710 63.979,397.407 63.004,397.253 62.500 C 396.434 59.817,393.089 53.434,391.187 50.924 C 390.855 50.485,390.321 49.771,390.000 49.336 C 387.893 46.482,383.469 42.093,380.840 40.250 C 378.370 38.518,377.794 38.140,376.083 37.128 C 367.803 32.228,357.188 29.788,347.750 30.614 M153.195 50.824 C 175.921 54.709,184.753 82.709,168.421 99.093 C 154.720 112.837,131.560 109.049,122.850 91.640 C 112.440 70.831,130.232 46.898,153.195 50.824 M255.500 51.051 C 277.485 56.330,285.353 83.073,269.587 98.932 C 251.622 117.001,220.975 104.448,220.926 79.000 C 220.898 64.495,231.476 52.355,245.667 50.606 C 247.646 50.362,253.788 50.640,255.500 51.051 M357.833 51.051 C 379.833 56.334,387.687 83.035,371.917 98.932 C 355.831 115.149,328.440 106.958,323.653 84.500 C 320.300 68.774,331.976 52.520,348.000 50.604 C 350.013 50.363,356.126 50.641,357.833 51.051 M47.877 127.286 C 48.131 127.325,48.506 127.324,48.711 127.284 C 48.916 127.244,48.708 127.213,48.250 127.214 C 47.792 127.216,47.624 127.248,47.877 127.286 " stroke="none" fill="#8c8c8c" fill-rule="evenodd"></path><path id="path2" d="M44.067 30.515 C 39.861 30.890,33.337 32.440,30.417 33.758 C 29.958 33.965,28.794 34.470,27.829 34.881 C 26.865 35.292,25.381 36.049,24.532 36.564 C 23.683 37.079,22.951 37.500,22.904 37.500 C 22.750 37.500,19.859 39.490,19.745 39.674 C 19.683 39.775,19.495 39.908,19.328 39.970 C 18.663 40.217,13.287 45.066,12.490 46.137 C 12.240 46.474,11.577 47.236,11.017 47.830 C 10.458 48.424,10.000 48.987,9.999 49.080 C 9.999 49.174,9.755 49.516,9.458 49.841 C 8.645 50.729,5.756 55.266,5.218 56.500 C 5.118 56.729,4.735 57.554,4.368 58.333 C 3.419 60.343,3.085 61.133,2.779 62.083 C 1.439 66.241,0.910 68.213,0.386 71.000 C -0.059 73.366,-0.056 83.954,0.390 86.500 C 1.402 92.276,3.795 98.894,6.402 103.127 C 6.868 103.884,7.365 104.709,7.505 104.960 C 7.948 105.754,8.391 106.387,9.223 107.417 C 9.667 107.967,10.075 108.529,10.130 108.667 C 10.185 108.804,10.546 109.254,10.931 109.667 C 11.317 110.079,11.973 110.829,12.389 111.333 C 13.215 112.335,15.314 114.395,16.500 115.368 C 16.912 115.706,17.587 116.286,18.000 116.656 C 18.412 117.026,18.820 117.329,18.906 117.331 C 18.992 117.332,19.404 117.618,19.823 117.967 C 20.496 118.527,22.108 119.667,22.228 119.667 C 22.253 119.667,23.275 120.267,24.500 121.000 C 25.725 121.733,26.828 122.333,26.951 122.333 C 27.075 122.333,27.609 122.552,28.138 122.819 C 37.265 127.426,50.648 128.507,61.000 125.472 C 61.962 125.190,63.050 124.898,63.417 124.822 C 64.930 124.512,70.864 121.837,72.497 120.729 C 72.919 120.443,73.598 120.039,74.007 119.831 C 74.785 119.435,74.982 119.299,76.539 118.081 C 77.065 117.670,77.541 117.333,77.596 117.333 C 78.060 117.333,83.512 112.155,85.445 109.879 C 86.892 108.175,89.195 104.887,90.083 103.255 C 92.020 99.699,92.333 99.103,92.333 98.975 C 92.333 98.895,92.658 98.062,93.055 97.123 C 97.936 85.578,97.841 70.542,92.820 59.906 C 92.644 59.533,92.500 59.137,92.500 59.025 C 92.500 58.839,90.783 55.463,90.495 55.083 C 90.426 54.992,90.147 54.504,89.875 53.999 C 88.965 52.308,85.465 47.500,85.144 47.500 C 85.065 47.500,85.000 47.422,85.000 47.326 C 85.000 46.778,79.515 41.542,77.368 40.039 C 75.045 38.415,73.663 37.500,73.531 37.500 C 73.450 37.500,73.091 37.289,72.733 37.031 C 72.053 36.540,69.212 35.000,68.987 35.000 C 68.915 35.000,68.345 34.763,67.720 34.473 C 60.968 31.343,51.858 29.819,44.067 30.515 M51.338 50.673 C 71.376 53.125,82.620 75.586,72.576 93.099 C 61.563 112.303,33.411 112.170,22.883 92.865 C 11.705 72.365,28.240 47.846,51.338 50.673 " stroke="none" fill="#9c548c" fill-rule="evenodd"></path><path id="path3" d="M150.875 50.615 C 151.035 50.657,151.298 50.657,151.458 50.615 C 151.619 50.573,151.487 50.539,151.167 50.539 C 150.846 50.539,150.715 50.573,150.875 50.615 M251.875 50.615 C 252.035 50.657,252.298 50.657,252.458 50.615 C 252.619 50.573,252.487 50.539,252.167 50.539 C 251.846 50.539,251.715 50.573,251.875 50.615 M354.208 50.615 C 354.369 50.657,354.631 50.657,354.792 50.615 C 354.952 50.573,354.821 50.539,354.500 50.539 C 354.179 50.539,354.048 50.573,354.208 50.615 M268.667 58.083 C 268.978 58.404,269.270 58.667,269.315 58.667 C 269.361 58.667,269.144 58.404,268.833 58.083 C 268.522 57.762,268.230 57.500,268.185 57.500 C 268.139 57.500,268.356 57.762,268.667 58.083 M371.000 58.083 C 371.311 58.404,371.603 58.667,371.649 58.667 C 371.695 58.667,371.478 58.404,371.167 58.083 C 370.856 57.762,370.564 57.500,370.518 57.500 C 370.472 57.500,370.689 57.762,371.000 58.083 M128.079 58.875 L 126.917 60.083 128.125 58.921 C 128.790 58.282,129.333 57.738,129.333 57.713 C 129.333 57.591,129.158 57.753,128.079 58.875 M168.333 58.750 C 168.924 59.346,169.445 59.833,169.490 59.833 C 169.536 59.833,169.091 59.346,168.500 58.750 C 167.909 58.154,167.389 57.667,167.343 57.667 C 167.297 57.667,167.743 58.154,168.333 58.750 M229.740 58.208 L 229.250 58.750 229.792 58.260 C 230.297 57.804,230.410 57.667,230.281 57.667 C 230.252 57.667,230.009 57.910,229.740 58.208 M332.073 58.208 L 331.583 58.750 332.125 58.260 C 332.630 57.804,332.743 57.667,332.615 57.667 C 332.586 57.667,332.342 57.910,332.073 58.208 M27.577 58.875 L 26.750 59.750 27.625 58.923 C 28.438 58.154,28.576 58.000,28.452 58.000 C 28.426 58.000,28.032 58.394,27.577 58.875 M228.491 59.458 L 227.917 60.083 228.542 59.509 C 228.885 59.193,229.167 58.912,229.167 58.884 C 229.167 58.757,229.026 58.877,228.491 59.458 M330.824 59.458 L 330.250 60.083 330.875 59.509 C 331.219 59.193,331.500 58.912,331.500 58.884 C 331.500 58.757,331.359 58.877,330.824 59.458 M372.333 59.417 C 372.644 59.737,372.936 60.000,372.982 60.000 C 373.028 60.000,372.811 59.737,372.500 59.417 C 372.189 59.096,371.897 58.833,371.851 58.833 C 371.805 58.833,372.022 59.096,372.333 59.417 M270.167 59.583 C 270.478 59.904,270.770 60.167,270.815 60.167 C 270.861 60.167,270.644 59.904,270.333 59.583 C 270.022 59.262,269.730 59.000,269.685 59.000 C 269.639 59.000,269.856 59.262,270.167 59.583 M220.879 76.833 C 220.879 77.246,220.911 77.415,220.951 77.208 C 220.991 77.002,220.991 76.665,220.951 76.458 C 220.911 76.252,220.879 76.421,220.879 76.833 M323.212 76.833 C 323.212 77.246,323.245 77.415,323.284 77.208 C 323.324 77.002,323.324 76.665,323.284 76.458 C 323.245 76.252,323.212 76.421,323.212 76.833 M176.709 76.917 C 176.711 77.283,176.745 77.414,176.785 77.206 C 176.824 76.999,176.823 76.699,176.781 76.540 C 176.739 76.380,176.707 76.550,176.709 76.917 M176.712 81.000 C 176.712 81.412,176.745 81.581,176.784 81.375 C 176.824 81.169,176.824 80.831,176.784 80.625 C 176.745 80.419,176.712 80.587,176.712 81.000 M220.879 81.000 C 220.879 81.412,220.911 81.581,220.951 81.375 C 220.991 81.169,220.991 80.831,220.951 80.625 C 220.911 80.419,220.879 80.587,220.879 81.000 M323.212 81.000 C 323.212 81.412,323.245 81.581,323.284 81.375 C 323.324 81.169,323.324 80.831,323.284 80.625 C 323.245 80.419,323.212 80.587,323.212 81.000 M173.783 91.585 C 173.630 91.905,173.540 92.167,173.582 92.167 C 173.696 92.167,174.202 91.146,174.125 91.070 C 174.089 91.034,173.935 91.266,173.783 91.585 M325.845 91.083 C 325.845 91.175,325.952 91.438,326.083 91.667 C 326.214 91.896,326.322 92.008,326.322 91.917 C 326.322 91.825,326.214 91.563,326.083 91.333 C 325.952 91.104,325.845 90.992,325.845 91.083 M128.167 99.083 C 128.942 99.862,129.613 100.500,129.659 100.500 C 129.705 100.500,129.108 99.862,128.333 99.083 C 127.558 98.304,126.887 97.667,126.841 97.667 C 126.795 97.667,127.392 98.304,128.167 99.083 M330.167 97.719 C 330.167 97.748,330.410 97.991,330.708 98.260 L 331.250 98.750 330.760 98.208 C 330.304 97.703,330.167 97.590,330.167 97.719 M26.833 98.385 C 26.833 98.414,27.077 98.658,27.375 98.927 L 27.917 99.417 27.427 98.875 C 26.971 98.370,26.833 98.257,26.833 98.385 M167.573 99.875 L 167.083 100.417 167.625 99.927 C 167.923 99.658,168.167 99.414,168.167 99.385 C 168.167 99.257,168.029 99.370,167.573 99.875 M230.000 99.917 C 230.311 100.237,230.603 100.500,230.649 100.500 C 230.695 100.500,230.478 100.237,230.167 99.917 C 229.856 99.596,229.564 99.333,229.518 99.333 C 229.472 99.333,229.689 99.596,230.000 99.917 M268.491 99.958 L 267.917 100.583 268.542 100.009 C 269.123 99.474,269.243 99.333,269.116 99.333 C 269.088 99.333,268.807 99.615,268.491 99.958 M370.740 100.042 L 370.250 100.583 370.792 100.094 C 371.297 99.638,371.410 99.500,371.281 99.500 C 371.252 99.500,371.009 99.744,370.740 100.042 M147.875 107.453 C 148.127 107.491,148.540 107.491,148.792 107.453 C 149.044 107.415,148.837 107.383,148.333 107.383 C 147.829 107.383,147.623 107.415,147.875 107.453 M248.875 107.453 C 249.127 107.491,249.540 107.491,249.792 107.453 C 250.044 107.415,249.838 107.383,249.333 107.383 C 248.829 107.383,248.623 107.415,248.875 107.453 M351.208 107.453 C 351.460 107.491,351.873 107.491,352.125 107.453 C 352.377 107.415,352.171 107.383,351.667 107.383 C 351.162 107.383,350.956 107.415,351.208 107.453 " stroke="none" fill="#b7b7b7" fill-rule="evenodd"></path><path id="path4" d="M46.881 50.623 C 47.412 50.657,48.237 50.656,48.714 50.623 C 49.192 50.589,48.758 50.562,47.750 50.562 C 46.742 50.563,46.351 50.590,46.881 50.623 M28.824 57.792 L 28.250 58.417 28.875 57.842 C 29.457 57.308,29.577 57.167,29.449 57.167 C 29.422 57.167,29.140 57.448,28.824 57.792 M66.667 57.713 C 66.667 57.738,67.248 58.319,67.958 59.004 L 69.250 60.250 68.004 58.958 C 66.847 57.759,66.667 57.591,66.667 57.713 M76.042 76.083 C 76.044 76.450,76.078 76.580,76.118 76.373 C 76.158 76.166,76.156 75.866,76.115 75.706 C 76.073 75.547,76.040 75.717,76.042 76.083 M19.372 77.000 C 19.372 77.321,19.406 77.452,19.448 77.292 C 19.490 77.131,19.490 76.869,19.448 76.708 C 19.406 76.548,19.372 76.679,19.372 77.000 M277.705 77.667 C 277.705 77.987,277.740 78.119,277.782 77.958 C 277.823 77.798,277.823 77.535,277.782 77.375 C 277.740 77.215,277.705 77.346,277.705 77.667 M380.039 77.833 C 380.039 78.154,380.073 78.285,380.115 78.125 C 380.157 77.965,380.157 77.702,380.115 77.542 C 380.073 77.381,380.039 77.512,380.039 77.833 M76.227 79.000 C 76.227 79.871,76.255 80.227,76.289 79.792 C 76.324 79.356,76.324 78.644,76.289 78.208 C 76.255 77.773,76.227 78.129,76.227 79.000 M176.726 78.917 C 176.725 79.742,176.754 80.100,176.788 79.713 C 176.823 79.327,176.824 78.652,176.789 78.213 C 176.755 77.775,176.726 78.092,176.726 78.917 M220.892 78.917 C 220.892 79.742,220.920 80.100,220.955 79.713 C 220.990 79.327,220.990 78.652,220.956 78.213 C 220.922 77.775,220.893 78.092,220.892 78.917 M323.226 78.917 C 323.225 79.742,323.254 80.100,323.288 79.713 C 323.323 79.327,323.324 78.652,323.289 78.213 C 323.255 77.775,323.226 78.092,323.226 78.917 M119.872 80.167 C 119.872 80.487,119.906 80.619,119.948 80.458 C 119.990 80.298,119.990 80.035,119.948 79.875 C 119.906 79.715,119.872 79.846,119.872 80.167 M277.705 80.167 C 277.705 80.487,277.740 80.619,277.782 80.458 C 277.823 80.298,277.823 80.035,277.782 79.875 C 277.740 79.715,277.705 79.846,277.705 80.167 M19.372 81.000 C 19.372 81.321,19.406 81.452,19.448 81.292 C 19.490 81.131,19.490 80.869,19.448 80.708 C 19.406 80.548,19.372 80.679,19.372 81.000 M76.042 81.917 C 76.044 82.283,76.078 82.414,76.118 82.206 C 76.158 81.999,76.156 81.699,76.115 81.540 C 76.073 81.380,76.040 81.550,76.042 81.917 M26.167 97.552 C 26.167 97.581,26.410 97.825,26.708 98.094 L 27.250 98.583 26.760 98.042 C 26.304 97.537,26.167 97.423,26.167 97.552 M67.746 99.208 L 66.583 100.417 67.792 99.254 C 68.914 98.175,69.076 98.000,68.954 98.000 C 68.928 98.000,68.385 98.544,67.746 99.208 M269.573 98.875 L 269.083 99.417 269.625 98.927 C 270.130 98.471,270.243 98.333,270.115 98.333 C 270.086 98.333,269.842 98.577,269.573 98.875 M371.740 99.042 L 371.250 99.583 371.792 99.094 C 372.297 98.638,372.410 98.500,372.281 98.500 C 372.252 98.500,372.009 98.744,371.740 99.042 M28.500 99.885 C 28.500 99.914,28.744 100.158,29.042 100.427 L 29.583 100.917 29.094 100.375 C 28.638 99.870,28.500 99.757,28.500 99.885 M46.375 107.453 C 46.627 107.491,47.040 107.491,47.292 107.453 C 47.544 107.415,47.337 107.383,46.833 107.383 C 46.329 107.383,46.123 107.415,46.375 107.453 M48.377 107.453 C 48.631 107.491,49.006 107.490,49.211 107.451 C 49.416 107.411,49.208 107.380,48.750 107.381 C 48.292 107.382,48.124 107.415,48.377 107.453 " stroke="none" fill="#d3b2cb" fill-rule="evenodd"></path></g></svg>