<svg xmlns="http://www.w3.org/2000/svg" id="google-docs" enable-background="new 0 0 141.7 141.7" viewBox="0 0 141.7 141.7">
  <path fill="#00832d" d="M58.6,97.8H31.7v19.6c0,4.1,3.3,7.3,7.3,7.3h19.6V97.8z"></path>
  <path fill="#ffba00" d="M58.6,17H39c-4.1,0-7.3,3.3-7.3,7.3v73.4h26.9V43.9h24.5V17H58.6z"></path>
  <path fill="#0066da" d="M110,97.8H83.1v26.9h19.6c4.1,0,7.3-3.3,7.3-7.3V97.8z"></path>
  <path fill="#00ac47" d="M83.1,97.8H58.6v26.9h24.5V97.8z"></path>
  <path fill="#2684fc" d="M83.1,43.9v53.9H110V43.9H83.1z"></path>
  <path fill="#ea4335" d="M83.1,17v26.9H110L83.1,17z"></path>
  <path fill="#fff" d="M83.1,43.9H58.6v53.9h24.5V43.9z"></path>
</svg>
